SplineFontDB: 3.0
FontName: SortsMillWalbaum-Italic
FullName: Sorts Mill Walbaum Italic
FamilyName: SortsMillWalbaum
Weight: Regular
Copyright: Copyright (c) 2009 Barry Schwartz\n\nPermission is hereby granted, free of charge, to any person\nobtaining a copy of this software and associated documentation\nfiles (the "Software"), to deal in the Software without\nrestriction, including without limitation the rights to use,\ncopy, modify, merge, publish, distribute, sublicense, and/or sell\ncopies of the Software, and to permit persons to whom the\nSoftware is furnished to do so, subject to the following\nconditions:\n\nThe above copyright notice and this permission notice shall be\nincluded in all copies or substantial portions of the Software.\n\nTHE SOFTWARE IS PROVIDED "AS IS", WITHOUT WARRANTY OF ANY KIND,\nEXPRESS OR IMPLIED, INCLUDING BUT NOT LIMITED TO THE WARRANTIES\nOF MERCHANTABILITY, FITNESS FOR A PARTICULAR PURPOSE AND\nNONINFRINGEMENT. IN NO EVENT SHALL THE AUTHORS OR COPYRIGHT\nHOLDERS BE LIABLE FOR ANY CLAIM, DAMAGES OR OTHER LIABILITY,\nWHETHER IN AN ACTION OF CONTRACT, TORT OR OTHERWISE, ARISING\nFROM, OUT OF OR IN CONNECTION WITH THE SOFTWARE OR THE USE OR\nOTHER DEALINGS IN THE SOFTWARE.
UComments: "The starting point for a glyph of Sorts Mill Walbaum is a glyph of Sorts Mill Walbaum Display transformed as follows, in FontForge:+AAoACgAA-Element->Style->Change Weight+AAoA-Embolden by: 36 em units+AAoA-Emboldening hints: CJK+AAoA-Counters: Retain+AAoACgAA-Then raise the letters by 18 units and skew them rightwards by 3 degrees.+AAoACgAA-CJK emboldening thickens all the lines by a certain amount, and so not only emboldens but also reduces contrast. This is what we want FontForge to do." 
Version: 001.000
ItalicAngle: -12
UnderlinePosition: -204
UnderlineWidth: 102
Ascent: 1472
Descent: 576
LayerCount: 3
Layer: 0 0 "Back"  1
Layer: 1 0 "Fore"  0
Layer: 2 0 "backup"  1
NeedsXUIDChange: 1
XUID: [1021 658 797806517 12611104]
FSType: 0
OS2Version: 0

StartChar: y
Encoding: 121 121 0
Width: 1336
VWidth: 18
Flags: HMW
LayerCount: 3
Fore
SplineSet
-223.63719325 -475.979248925 m 0
 -223.63719325 -391.72438575 -157.286456203 -350 -108.342773438 -350 c 0
 -54.0078185213 -350 -11.0610678777 -411.761202037 -11.0610678777 -479.2294055 c 0
 -11.0610678777 -500.161598945 -15.1949824531 -521.643129791 -24.4052734375 -542 c 1
 -11.6669921875 -547 3.17578125 -550 20.17578125 -550 c 0
 222.17578125 -550 453.461914062 -182 464.625 31 c 0
 465.510543769 47.8979061259 465.955816321 67.3155383936 465.955816321 88.6928273348 c 0
 465.955816321 315.272214283 415.933768727 762 309.934570312 762 c 0
 220.934570312 762 129.631835938 470 129.631835938 470 c 1
 121.688476562 452 111.745117188 434 87.7451171875 434 c 1
 51.9930681158 437.505958797 42.4780172823 457.913069839 42.4780172823 471.65410564 c 0
 42.4780172823 487.04814134 156.698938192 916 407.005859375 916 c 0
 659.005859375 916 650.142578125 537 668.088867188 307 c 1
 811.413085938 504 889.7179423 635.670346004 1058.70800781 834 c 0
 1104.64325056 887.910392743 1144.00097656 935 1218.00097656 935 c 0
 1306.70698883 935 1334.85434734 873.134414425 1334.85434734 821.429097104 c 0
 1334.85434734 743.713539423 1269.50410387 685 1215.89941406 685 c 0
 1163.89941406 685 1141.78613281 721 1105.515625 754 c 1
 656.057617188 211 594.00390625 -19 560.493164062 -86 c 0
 353.500594456 -499.852432328 204.03515625 -629 -18.96484375 -629 c 0
 -194.008935147 -629 -223.63719325 -541.319257736 -223.63719325 -475.979248925 c 0
EndSplineSet
EndChar

StartChar: x
Encoding: 120 120 4
Width: 1308
VWidth: 18
Flags: HMW
LayerCount: 3
Fore
SplineSet
1366.58466262 781.465471858 m 0
 1366.58466262 678.588918524 1327.00900069 642 1267.64550781 642 c 0
 1203.64550781 642 1180.73828125 701 1171.34570312 808 c 1
 1079.98242188 782 993.623007036 713.866541305 956.431640625 657 c 0
 846.512260877 488.930484093 721.41148562 170.209252839 721.41148562 120.695785366 c 0
 721.41148562 75.4919617843 771.68662297 65 783.40625 65 c 0
 937.40625 65 1104.94921875 228 1134.94921875 228 c 0
 1148.64929578 228 1179.74052376 212.678204611 1179.74052376 186.720074783 c 0
 1179.74052376 137.862772683 915.560075787 -43 720.74609375 -43 c 0
 561.74609375 -43 520.987304688 57 512.02734375 115 c 1
 455.458984375 66 326.375 -31 209.375 -31 c 0
 123.789536114 -31 49.6917844953 25.7525959707 49.6917844953 105.220668416 c 0
 49.6917844953 178.218635138 100.309802133 241 178.629882812 241 c 0
 220.292898963 241 263.56461437 204.69846024 263.56461437 139.8782218 c 0
 263.56461437 117.534489086 258.42306135 91.8021594577 246.301757812 63 c 1
 304.930664062 75 403.341796875 121 512.578125 240 c 0
 562.704743427 295.292269948 724.095622533 603.602920627 724.095622533 751.489297103 c 0
 724.095622533 805.218361297 701.735089896 821 668.026367188 821 c 0
 508.026367188 821 390.008789062 668 371.431640625 657 c 0
 365.22265625 653 358.169921875 652 352.169921875 652 c 0
 332.169921875 652 315.008789062 668 316.00390625 687 c 0
 318.362304688 732 494.900390625 914 712.900390625 914 c 0
 854.900390625 914 906.450195312 810 924.620117188 756 c 1
 1052.75195312 873 1174.84863281 913 1241.84863281 913 c 0
 1310.56541121 913 1366.58466262 879.297504516 1366.58466262 781.465471858 c 0
EndSplineSet
EndChar

StartChar: z
Encoding: 122 122 5
Width: 1117
VWidth: 18
Flags: HMW
LayerCount: 3
Fore
SplineSet
1084.93962111 212.409781215 m 0
 1084.93962111 84.6457564231 929.104224382 -31 677.375 -31 c 0
 466.375 -31 392.354492188 64 274.354492188 64 c 1
 165.197265625 61 138.375 -31 94.375 -31 c 0
 83.4298269684 -31 48.8034864342 -16.5030634317 48.8034864342 12.9709301379 c 0
 48.8034864342 26.25632727 55.838706857 42.5846938774 75.2490234375 62 c 1
 782.052734375 707 l 1
 349.052734375 707 l 2
 338.052734375 707 343 706 341 706 c 1
 339.895507812 704 341.27978297 707.92528289 333.109375 689 c 2
 295.549804688 602 l 2
 277.19140625 557 267.461914062 524 236.461914062 524 c 1
 207.928903291 527.074371614 186.8965338 542.474587189 186.8965338 562.047765204 c 0
 186.8965338 565.578666043 187.580975645 569.245364711 189.029296875 573 c 0
 191.7109375 586 190.186523438 576 190.186523438 576 c 1
 193.868164062 589 206.23046875 615 216.59375 641 c 2
 308.333007812 865 l 1
 323.0625 898 334.5859375 908 366.5859375 908 c 0
 575.919270833 908 785.252604167 908 994.5859375 908 c 0
 1028.5859375 908 1031.0625 898 1043.28027344 864 c 0
 1044.89974574 860.38114646 1045.65192949 856.776850612 1045.65192949 853.161388489 c 0
 1045.65192949 832.16390432 1020.28132357 810.789789912 992.087890625 784 c 2
 361.057617188 211 l 1
 385.3203125 216 418.634765625 222 449.634765625 222 c 0
 625.634765625 222 697.087890625 78 798.087890625 78 c 1
 866.192382812 80 902.188476562 99 919.921875 113 c 1
 887.449308614 143.672047946 873.994080229 177.783057087 873.994080229 209.321628223 c 0
 873.994080229 269.314920229 922.681015067 320 981.770507812 320 c 0
 1015.73369486 320 1084.93962111 291.751087416 1084.93962111 212.409781215 c 0
EndSplineSet
EndChar

StartChar: w
Encoding: 119 119 6
Width: 1604
VWidth: 18
Flags: HMW
LayerCount: 3
Fore
SplineSet
1630.559176 741.380503433 m 0
 1630.559176 416.898077492 1297.12093853 -23 870.794921875 -23 c 0
 695.853132532 -23 660.722107352 57.3272998812 660.722107352 139.294880866 c 0
 660.722107352 144.863908314 660.884275406 150.44050745 661.17578125 156 c 1
 587.559570312 87 436.323242188 -32 267.323242188 -32 c 0
 125.557378737 -32 84.649278674 43.5141010349 84.649278674 136.154208074 c 0
 84.649278674 226.983282071 123.973577383 334.27531022 146.120117188 403 c 2
 250.833984375 741 l 2
 258.249023438 768 266.559570312 793 273.869140625 818 c 1
 113.869140625 818 l 1
 86.2032568714 821.843813299 74.415894428 840.277679929 74.415894428 859.470529782 c 0
 74.415894428 883.157257509 92.3693413432 908 120.5859375 908 c 2
 459.5859375 908 l 1
 461.762387821 908.003086494 l 2
 475.042932651 908.003086494 503.539505218 907.111104415 501.856445312 875 c 0
 499.02306918 820.942009273 262.446745663 224.017116539 262.446745663 121.070400931 c 0
 262.446745663 85.2858790504 288.888905792 62 334.249023438 62 c 0
 404.249023438 62 521.022178199 115.004236807 648.150390625 270 c 0
 694.083094573 326.001530801 735.27734375 406 776.465820312 505 c 2
 910.340820312 827 l 2
 930.232976152 874.845185287 936.428710938 905 1000.42871094 905 c 2
 1070.42871094 905 l 1
 1073.77743125 905.002066116 l 2
 1096.99924588 905.002066116 1129.37403329 904.144657612 1129.37403329 867.496963485 c 0
 1129.37403329 856.997570788 1127.4595297 839.220442392 1116.71191406 815 c 2
 1027.39257812 599 l 1
 899.188179849 284.746120935 854.36920452 177.796631788 854.36920452 118.35166173 c 0
 854.36920452 84.333931202 869.879305994 64 925.354492188 64 c 0
 1193.78167229 64 1508.4232854 389.189722124 1508.4232854 601.165168322 c 0
 1508.4232854 679.148325163 1354.64248896 696.750657039 1354.64248896 792.227143493 c 0
 1354.64248896 858.090857397 1408.78272995 902 1476.27148438 902 c 0
 1549.69971675 902 1630.559176 847.858917212 1630.559176 741.380503433 c 0
EndSplineSet
EndChar

StartChar: v
Encoding: 118 118 7
Width: 1231
VWidth: 18
Flags: HMW
LayerCount: 3
Fore
SplineSet
945.614762355 790.250881355 m 0
 945.614762355 867.340067652 1012.24210916 905 1063.42871094 905 c 0
 1150.31866202 905 1226.87834184 814.588053191 1226.87834184 709.353475655 c 0
 1226.87834184 591.907295722 1115.86924823 170.730190822 707.047851562 20 c 0
 619.37109375 -12 529.427734375 -30 449.427734375 -30 c 0
 325.656476639 -30 236.126653081 16.7508155921 236.126653081 130.143394138 c 0
 236.126653081 221.676860959 443.373707143 694.049865489 446.987304688 763 c 0
 448.03515625 783 441.821289062 798 436.821289062 798 c 0
 343.821289062 798 230.846679688 684 176.23046875 615 c 0
 165.497070312 601 151.868164062 589 136.868164062 589 c 0
 120.40588325 589 106.605831906 604.003824703 106.605831906 621.298396252 c 0
 106.605831906 672.392032812 317.631245798 920 553.21484375 920 c 0
 620.3801269 920 693.983780868 898.206882799 693.983780868 823.26136032 c 0
 693.983780868 756.44999829 446.358856281 176.53699075 446.358856281 118.012966279 c 0
 446.358856281 84.1990059783 461.189398991 64 518.354492188 64 c 0
 781.827383637 64 1086.42455675 359.635994968 1086.42455675 565.740853863 c 0
 1086.42455675 687.550746164 945.614762355 675.407843068 945.614762355 790.250881355 c 0
EndSplineSet
EndChar

StartChar: u
Encoding: 117 117 8
Width: 1312
VWidth: 18
Flags: HMW
LayerCount: 3
Fore
SplineSet
1232.99707031 248 m 1
 1230.53417969 201 1036.42773438 -30 822.427734375 -30 c 0
 740.852181105 -30 692.277122982 5.83810854141 692.277122982 60.1124593599 c 0
 692.277122982 87.9812483286 698.933916078 109.031384385 728.009765625 191 c 1
 586.934570312 56 401.532226562 -28 267.532226562 -28 c 0
 141.958038648 -28 104.092475422 39.9567004941 104.092475422 128.494221111 c 0
 104.092475422 215.083341973 140.309800374 321.357426867 166.120117188 403 c 2
 273.833984375 741 l 1
 281.249023438 768 289.559570312 793 296.869140625 818 c 1
 133.869140625 818 l 1
 124.341714013 819.925796457 97.0516541547 819.070056342 97.0516541547 857.393172591 c 0
 97.0516541547 895.801920351 121.972224162 908 138.5859375 908 c 2
 462.5859375 908 l 1
 464.331320923 908.0025 l 2
 476.584987362 908.0025 514.712878198 907.141400753 514.712878198 873.456771115 c 0
 514.712878198 819.977742533 282.453673462 194.143542624 282.453673462 121.378936884 c 0
 282.453673462 94.3482628011 299.472203613 76 355.983398438 76 c 0
 513.983398438 76 682.892578125 246 739.452148438 333 c 1
 849.67578125 509 961.123046875 861 982.380859375 885 c 0
 996.219726562 901 1015.5859375 908 1046.5859375 908 c 2
 1115.5859375 908 l 2
 1148.21458853 908 1172.37326678 906.61991785 1172.37326678 868.343316481 c 0
 1172.37326678 866.636641861 1172.3252373 864.856613863 1172.22778762 863.000084148 c 0
 1161.24536575 787.000084148 923.789459405 243.999876813 916.870117188 112 c 0
 915.664471976 88.9999785356 919.349609375 83 927.349609375 83 c 0
 947.349609375 83 1030.13183594 117 1126.84375 226 c 0
 1166.5212622 270.718883629 1170.09375 288 1193.09375 288 c 1
 1225.7265625 281 1232.99707031 248 1232.99707031 248 c 1
EndSplineSet
EndChar

StartChar: t
Encoding: 116 116 9
Width: 751
VWidth: 18
Flags: HMW
LayerCount: 3
Fore
SplineSet
624 275 m 1
 651 270 661 254 661 238 c 0
 661 225 655 213 648 207 c 0
 544 113 395 -18 227 -18 c 0
 115 -18 81 31 81 97 c 0
 81 163 115 246 139 312 c 2
 325 818 l 1
 202 818 186 818 171 818 c 0
 156 818 136 820 136 848 c 0
 136 912 172 907 205 908 c 1
 359 908 l 1
 458 1165 l 1
 478 1210 505 1210 540 1210 c 2
 609 1210 l 2
 628 1210 661 1209 661 1178 c 0
 661 1171 659 1163 655 1153 c 2
 560 908 l 1
 612 908 664 908 716 908 c 0
 731 908 758 907 758 877 c 0
 758 820 725 818 707 818 c 2
 526 818 l 1
 440 583 l 1
 359 357 281 171 281 101 c 0
 281 82 287 72 300 72 c 0
 346 72 457 140 600 265 c 0
 602 267 609 275 624 275 c 1
EndSplineSet
EndChar

StartChar: a
Encoding: 97 97 10
Width: 1258
VWidth: 18
Flags: HMW
LayerCount: 3
Fore
SplineSet
1178.6604187 891.608899413 m 0
 1178.6604187 825.220547867 905.765868777 285.84479913 905.765868777 137.587553896 c 0
 905.765868777 113.729518291 912.832824569 100 929.241210938 100 c 0
 1033.24121094 100 1156.83059136 283.00048763 1169.45996094 295 c 0
 1177.87988281 303 1186.03710938 306 1194.03710938 306 c 0
 1212.50703674 306 1228.29420166 290.880305173 1228.29420166 273.501548651 c 0
 1228.29420166 238.988208132 1054.45656338 -18 804.056640625 -18 c 0
 721.068276348 -18 696.621380981 27.1988213932 696.621380981 87.9827470278 c 0
 696.621380981 107.088582958 699.036721193 127.734218867 702.80859375 149 c 1
 631.297851562 82 485.427734375 -30 312.427734375 -30 c 0
 129.978317119 -30 74.7561088926 109.191547332 74.7561088926 248.331912158 c 0
 74.7561088926 600.123017883 441.187764494 926 696.529296875 926 c 0
 859.529296875 926 907.5546875 812 921.415039062 733 c 1
 1000.32421875 903 990.529296875 926 1064.52929688 926 c 2
 1125.52929688 926 l 2
 1143.08384885 926 1178.6604187 925.048881806 1178.6604187 891.608899413 c 0
719.546875 850 m 0
 524.411982786 850 263.183735006 357.562470074 263.183735006 130.612646559 c 0
 263.183735006 61.9213866259 293.986756585 38 341.991210938 38 c 0
 436.991210938 38 596.970703125 133 696.20703125 252 c 0
 803.180158846 380.987887189 847.834838056 618.228115452 847.834838056 670.509932404 c 0
 847.834838056 751.634884223 804.484220213 850 719.546875 850 c 0
EndSplineSet
EndChar

StartChar: b
Encoding: 98 98 11
Width: 1185
VWidth: 18
Flags: HMW
LayerCount: 3
Fore
SplineSet
129.305968583 135.865612606 m 0
 129.305968583 249.015364482 227.16899169 418.271295405 584.995117188 1431 c 1
 397.995117188 1431 l 2
 365.022776046 1431 360.98673192 1449.89577398 362.0390625 1470 c 0
 364.607421875 1519 397.711914062 1521 411.711914062 1521 c 2
 753.942382812 1521 l 2
 789.037818683 1521 799.790053424 1508.77673425 799.790053424 1491.22942485 c 0
 799.790053424 1475.18042874 790.795628253 1454.67778059 783.205078125 1435 c 2
 575.651367188 852 l 1
 645.95703125 896 784.8359375 970 919.8359375 970 c 0
 1084.04434258 970 1180.18972657 832.600607216 1180.18972657 680.888943808 c 0
 1180.18972657 321.795685739 799.433186412 -48 454.484375 -48 c 0
 316.012746767 -48 129.305968583 6.97411267321 129.305968583 135.865612606 c 0
531.318359375 693 m 0
 481.822711583 635.337582928 330.64456087 258.052467139 330.64456087 154.900304735 c 0
 330.64456087 55.2053325826 373.349865758 35 440.833984375 35 c 0
 693.833984375 35 846.076171875 364 884.216796875 443 c 0
 937.055752247 554.361219747 987.182819871 676.676044298 987.182819871 762.815440005 c 0
 987.182819871 830.612439869 956.130817536 876 870.909179688 876 c 0
 771.909179688 876 630.345703125 808 531.318359375 693 c 0
EndSplineSet
EndChar

StartChar: c
Encoding: 99 99 12
Width: 984
VWidth: 18
Flags: HMW
LayerCount: 3
Fore
SplineSet
787.032410359 698.87247161 m 0
 787.032410359 738.587500482 794.960428653 765.91616785 794.960428653 784.114593446 c 0
 794.960428653 834.540665712 754.765663291 868 685.490234375 868 c 0
 567.4375 867 504.517842458 807.866885354 438.890625 723 c 0
 330.095246548 582.309517183 263.748285744 358.899659928 263.748285744 227.933992433 c 0
 263.748285744 83.8771522311 321.928548598 42 417.201171875 42 c 1
 643.358398438 45 737.791992188 225 781.791992188 225 c 1
 811.204692051 221.178933089 820.545700384 200.019730604 820.545700384 183.315180937 c 0
 820.545700384 127.794561199 591.933919289 -47 409.537109375 -47 c 0
 157.138526947 -47 55.9152834307 102.680770436 55.9152834307 289.719897087 c 0
 55.9152834307 581.25184205 302.600366005 955 673.049804688 955 c 0
 836.416623704 955 959.241609457 867.058860096 959.241609457 735.313797759 c 0
 959.241609457 680.775480047 937.959873454 598 866.33984375 598 c 0
 801.014693497 598 787.032410359 649.975551009 787.032410359 698.87247161 c 0
EndSplineSet
EndChar

StartChar: d
Encoding: 100 100 13
Width: 1253
VWidth: -2
Flags: HMW
LayerCount: 3
Fore
SplineSet
1226 265 m 0
 1226 227 1019 -39 797 -39 c 0
 697 -39 668 28 668 92 c 0
 668 108 669 123 672 137 c 1
 562 34 436 -22 335 -22 c 0
 167 -22 55 98 55 264 c 0
 55 552 308 978 652 978 c 0
 770 978 851 910 892 829 c 1
 1101 1431 l 1
 887 1431 l 2
 854 1431 841 1449 841 1469 c 0
 841 1494 861 1521 889 1521 c 2
 1257 1521 l 2
 1274 1521 1302 1520 1302 1485 c 0
 1302 1419.07657409 868.000022289 250.530499331 868 124 c 0
 868 95 875 71 902 71 c 0
 996 71 1146 281 1160 291 c 0
 1168 297 1179 301 1190 301 c 1
 1215 296 1226 280 1226 265 c 0
672 884 m 0
 506 884 382 632 331 519 c 1
 251 336 239 262 239 206 c 0
 239 133 263 67 354 67 c 0
 486 67 683 205 733 361 c 0
 742 392 846 674 846 712 c 0
 846 792 769 884 672 884 c 0
EndSplineSet
EndChar

StartChar: e
Encoding: 101 101 14
Width: 926
VWidth: 18
Flags: HMW
LayerCount: 3
Fore
SplineSet
69.6400022746 208.064298509 m 0
 69.6400022746 568.462397837 421.437330488 927 758.58203125 927 c 0
 870.434733602 927 924.99833963 862.845655127 924.99833963 786.535783074 c 0
 924.99833963 548.251276469 482.293080635 452.69216927 315.6484375 394 c 1
 297.686920204 358.832516806 277.204864705 289.012122398 277.204864705 223.444919944 c 0
 277.204864705 145.193480349 306.378120667 73 403.826171875 73 c 0
 580.826171875 73 780.46484375 276 781.516601562 277 c 0
 790.883789062 284 799.041015625 287 809.041015625 287 c 0
 834.041015625 287 847.993001747 267.000008508 846.997070312 248 c 0
 844.166530873 194.000024181 588.270507812 -33 323.270507812 -33 c 0
 180.175446625 -33 69.6400022746 15.2328011386 69.6400022746 208.064298509 c 0
709.393554688 828 m 0
 544.393554688 828 402.182617188 595 352.994140625 496 c 1
 511.282192592 541.785430632 774.015928029 657.5015359 774.015928029 765.169226501 c 0
 774.015928029 788.725695488 761.001169043 828 709.393554688 828 c 0
EndSplineSet
EndChar

StartChar: f
Encoding: 102 102 15
Width: 952
VWidth: 18
Flags: HMW
LayerCount: 3
Fore
SplineSet
-255.948039551 -376.356486708 m 0
 -255.948039551 -398.285189366 -262.444533429 -453.446846173 -289.469726562 -486 c 1
 -272.836914062 -493 -247.098632812 -498 -216.098632812 -498 c 0
 110.901367188 -498 274.46875 257 401.869140625 818 c 1
 176.869140625 818 l 2
 175.477836277 818 173.987443142 817.984877127 172.427161617 817.984877127 c 0
 156.69158759 817.984877127 133.847737609 819.523008971 133.847737609 853.623657834 c 0
 133.847737609 893.451127903 152.943017565 908 181.5859375 908 c 2
 425.5859375 908 l 1
 453.037109375 1012 614.43359375 1592 1003.43359375 1592 c 0
 1157.60418961 1592 1206.35074132 1481.99950987 1206.35074132 1421.53175237 c 0
 1206.35074132 1360.97719035 1156.85741426 1310 1112.65429688 1310 c 0
 1035.58997604 1310 1024.73868098 1393.48113169 1024.73868098 1459.78449407 c 0
 1024.73868098 1477.79679738 1025.53952691 1494.54134911 1026.03125 1508 c 1
 730.296875 1494 703.745117188 1140 647.5859375 908 c 1
 882.5859375 908 l 2
 898.944770895 907.034776987 925.64771916 907.932892995 925.64771916 872.925544262 c 0
 925.64771916 848.566397631 916.092003453 818 877.869140625 818 c 2
 626.869140625 818 l 1
 439.227539062 157 360.999358985 -62.5058479153 200.854492188 -289 c 0
 186.744085277 -308.956460128 20.7607421875 -577 -225.239257812 -577 c 0
 -299.704151347 -577 -471.289477242 -543.39963419 -471.289477242 -410.355543022 c 0
 -471.289477242 -326.002370404 -418.090519562 -264 -353.8359375 -264 c 0
 -302.877436518 -264 -255.948039551 -305.600070133 -255.948039551 -376.356486708 c 0
EndSplineSet
EndChar

StartChar: g
Encoding: 103 103 16
Width: 1334
VWidth: 18
Flags: HMW
LayerCount: 3
Fore
SplineSet
762.651367188 852 m 0
 604.305698673 852 486.739784793 659.652494036 486.739784793 522.798586444 c 0
 486.739784793 431.427573445 538.73366134 384 594.125 384 c 0
 741.536139483 384 858.135099256 593.826256742 858.135099256 732.484917762 c 0
 858.135099256 800.907141619 829.743160938 852 762.651367188 852 c 0
391.32421875 -509 m 0
 623.053052312 -509 876.711682064 -369.245419009 876.711682064 -172.371647753 c 0
 876.711682064 -128.733562594 861.510261847 -29 717.48046875 -29 c 0
 579.48046875 -29 358.1171875 -55 254.331054688 -70 c 0
 138.126302671 -87.3454205234 66.5579556301 -183.54483833 66.5579556301 -281.484461262 c 0
 66.5579556301 -394.091990666 161.1683803 -509 391.32421875 -509 c 0
288.499425038 538.613796064 m 0
 288.499425038 764.635390752 542.997297381 941 781.315429688 941 c 0
 877.315429688 941 983.905273438 895 1024.50292969 811 c 1
 1062.546875 850 1145.58203125 927 1222.58203125 927 c 0
 1302.10828015 927 1336.18045908 870.480310822 1336.18045908 815.533792234 c 0
 1336.18045908 763.563207263 1305.69906985 713 1254.3671875 713 c 1
 1170.68164062 719 1187.76464844 816 1159.76464844 816 c 2
 1157.76464844 816 l 1
 1129.45019531 810 1061.71288991 748.953672957 1056.84277344 703 c 0
 1033.10351562 479 829.565429688 297 583.565429688 297 c 0
 451.565429688 297 400.443359375 371 353.443359375 371 c 0
 235.974971287 371 189.409717156 316.830781518 189.409717156 262.746371027 c 0
 189.409717156 208.831046241 235.684269727 155 304.123046875 155 c 0
 446.123046875 155 525.32421875 197 743.32421875 197 c 0
 930.246724459 197 1018.00730074 92.4055194076 1018.00730074 -64.739864775 c 0
 1018.00730074 -382.89594591 710.290215004 -595 338.817382812 -595 c 0
 41.7770743688 -595 -72.0512191125 -457.383230681 -72.0512191125 -313.490304572 c 0
 -72.0512191125 -200.094182743 -12.4872078885 -88.3052411158 167.427734375 -30 c 1
 109.463906826 5.70832652885 62.571065659 74.9469673476 62.571065659 140.861801082 c 0
 62.571065659 193.150410482 90.6597072522 428.356400818 309.53125 449 c 1
 299.570700313 469.200869946 288.499425038 500.362435977 288.499425038 538.613796064 c 0
EndSplineSet
EndChar

StartChar: h
Encoding: 104 104 17
Width: 1361
VWidth: 18
Flags: HMW
LayerCount: 3
Fore
SplineSet
79.9734203985 36.3519785374 m 0
 79.9734203985 92.7426417628 183.365483979 304.086725274 585.995117188 1431 c 1
 373.995117188 1431 l 2
 341.022776046 1431 336.98673192 1449.89577398 338.0390625 1470 c 0
 340.607421875 1519 373.711914062 1521 387.711914062 1521 c 2
 749.711914062 1521 l 2
 785.316162689 1521 797.865601303 1510.96295077 797.865601303 1492.0097779 c 0
 797.865601303 1477.83636523 790.847666737 1458.67685125 781.205078125 1435 c 2
 513.26171875 711 l 1
 597.506835938 792 760.163085938 919 940.163085938 919 c 0
 1075.82376495 919 1171.76801339 842.004427239 1171.76801339 726.227690309 c 0
 1171.76801339 577.626296547 937.410767743 160.471955538 933.40234375 84 c 0
 932.72092325 70.9999884617 938.301757812 63 963.301757812 63 c 0
 1054.30175781 63 1170.90933865 192.122279162 1195.68652344 223 c 0
 1208.52539062 239 1215.578125 240 1228.578125 240 c 0
 1246.14133146 240 1269.42059431 221.910931482 1269.42059431 199.667094665 c 0
 1269.42059431 157.811899011 1111.82367066 -40 857.903320312 -40 c 0
 781.740739388 -40 701.107038744 -16.1639598413 701.107038744 56.6446266877 c 0
 701.107038744 143.779082236 960.255167695 655.013270647 960.255167695 753.720271073 c 0
 960.255167695 806.828124477 934.811930216 822 896.079101562 822 c 0
 657.079101562 822 453.162422457 530.88256314 417.53515625 430 c 0
 370.565429688 297 294.345703125 102 273.515625 48 c 0
 260.890625 17 237 0 214 0 c 2
 129 0 l 2
 121.185321138 0 79.9734203985 0 79.9734203985 36.3519785374 c 0
EndSplineSet
EndChar

StartChar: i
Encoding: 105 105 18
Width: 639
VWidth: 18
Flags: HMW
LayerCount: 3
Fore
SplineSet
81.0049639544 71.0831709459 m 0
 81.0049639544 121.947228048 106.760010182 178.501360344 332.869140625 818 c 1
 163.869140625 818 l 1
 136.203256871 821.843813299 124.415894428 840.277679929 124.415894428 859.470529782 c 0
 124.415894428 883.157257509 142.369341343 908 170.5859375 908 c 2
 501.5859375 908 l 1
 503.783569024 908.001210504 l 2
 522.325519449 908.001210504 546.521515608 907.245886092 544.490234375 868 c 1
 532.611328125 794 290.900390625 208 285.03125 96 c 0
 284.140625 79 288.983398438 76 302.983398438 76 c 0
 331.983398438 76 414.607421875 107 523.735351562 243 c 0
 542.993199007 266.99997196 555.09765625 269 563.09765625 269 c 1
 593.783203125 263 601.83984375 245 601.106445312 231 c 0
 598.538085938 182 405.11328125 -36 197.11328125 -36 c 0
 122.707179529 -36 81.0049639544 -2.33104618468 81.0049639544 71.0831709459 c 0
445.592289028 1343.95486967 m 0
 445.592289028 1410.59685966 503.209433454 1467 569.881835938 1467 c 0
 632.823959129 1467 681.909617613 1417.30279853 681.909617613 1356.0442417 c 0
 681.909617613 1289.40290973 624.291190541 1233 557.619140625 1233 c 0
 494.677321005 1233 445.592289028 1282.69669816 445.592289028 1343.95486967 c 0
EndSplineSet
EndChar

StartChar: j
Encoding: 106 106 19
Width: 675
VWidth: 18
Flags: HMW
LayerCount: 3
Fore
SplineSet
551.592289028 1343.95486967 m 0
 551.592289028 1410.59685966 609.209433454 1467 675.881835938 1467 c 0
 738.823959129 1467 787.909617613 1417.30279853 787.909617613 1356.0442417 c 0
 787.909617613 1289.40290973 730.291190541 1233 663.619140625 1233 c 0
 600.677321005 1233 551.592289028 1282.69669816 551.592289028 1343.95486967 c 0
250.869140625 818 m 1
 220.98017979 821.760795735 208.202725915 840.354996719 208.202725915 859.67407149 c 0
 208.202725915 883.29520789 227.304480018 908 257.5859375 908 c 2
 607.5859375 908 l 2
 607.928797724 908 608.769365568 908.026123202 609.986974911 908.026123202 c 0
 619.423351574 908.026123202 651.505323696 906.457130232 650.06640625 879 c 0
 649.018287654 859.000013994 387.548487896 145.019262551 258.67578125 -197 c 0
 162.220527002 -452.985582873 159.32421875 -509 -54.1865234375 -576 c 1
 -130.549804688 -602 -205.073242188 -612 -242.073242188 -612 c 0
 -282.455949694 -612 -295.93607175 -592.586153982 -295.93607175 -572.424739691 c 0
 -295.93607175 -467.207693522 -102.49788052 -596.655303911 -12.49609375 -372 c 1
 79.0341796875 -152 41.3207761406 -232.825984766 139.625 31 c 2
 432.869140625 818 l 1
 250.869140625 818 l 1
EndSplineSet
EndChar

StartChar: k
Encoding: 107 107 20
Width: 1199
VWidth: 18
Flags: HMW
LayerCount: 3
Fore
SplineSet
929.687898219 494.235257074 m 0
 929.687898219 355.172020008 831.011834552 161.163626518 831.011834552 98.4682168916 c 0
 831.011834552 80.9178342994 837.744589384 71 854.720703125 71 c 0
 944.720703125 71 1095.84863281 207 1095.84863281 207 c 2
 1099.953125 209 1106.05761719 211 1112.05761719 211 c 0
 1132.5269489 211 1152.95071569 191.998030675 1152.95071569 171.589782977 c 0
 1152.95071569 136.19780462 987.147405956 -24 774.7421875 -24 c 0
 670.303387405 -24 637.692192571 23.1107571498 637.692192571 89.5022691659 c 0
 637.692192571 199.920663411 727.8959122 363.670308321 727.8959122 452.724712134 c 0
 727.8959122 491.409996126 710.874122362 516 662.041992188 516 c 0
 593.041992188 516 525.103515625 479 485.583984375 450 c 0
 387.915039062 380 377.560546875 316 273.515625 48 c 0
 261.890625 17 237 0 214 0 c 2
 139 0 l 2
 115.730680525 0.971690039263 89.9247952332 7.60846927294 89.9247952332 35.507018136 c 0
 89.9247952332 74.4183022077 188.691657126 316.885763547 295.178710938 614 c 2
 587.995117188 1431 l 1
 373.995117188 1431 l 2
 341.022776046 1431 336.98673192 1449.89577398 338.0390625 1470 c 0
 340.607421875 1519 373.711914062 1521 387.711914062 1521 c 2
 753.711914062 1521 l 2
 790.657329498 1521 801.769679982 1509.89004659 801.769679982 1492.79971981 c 0
 801.769679982 1477.21113041 792.524426279 1456.64698978 785.205078125 1435 c 2
 474.243164062 558 l 1
 552.122070312 632 787.686523438 929 1036.68652344 929 c 0
 1138.87427742 929 1179.39599255 872.773976554 1179.39599255 814.637898242 c 0
 1179.39599255 752.41303712 1132.97395199 688 1066.05664062 688 c 0
 980.056640625 688 944.66796875 776 932.764648438 816 c 1
 824.825195312 779 705.685546875 700 614.287109375 597 c 1
 658.811523438 607 711.23046875 615 761.23046875 615 c 0
 903.490490538 615 929.687898219 545.741376685 929.687898219 494.235257074 c 0
EndSplineSet
EndChar

StartChar: l
Encoding: 108 108 21
Width: 764
VWidth: 18
Flags: HMW
LayerCount: 3
Fore
SplineSet
690.311523438 254 m 0
 689.106445312 231 551.00390625 -19 247.00390625 -19 c 0
 149.82846016 -19 119.393421617 24.6372220632 119.393421617 83.5167705084 c 0
 119.393421617 118.894814952 130.381267545 159.775738377 144.481445312 200 c 2
 575.995117188 1431 l 1
 373.995117188 1431 l 2
 341.022776046 1431 336.98673192 1449.89577398 338.0390625 1470 c 0
 340.607421875 1519 373.711914062 1521 387.711914062 1521 c 2
 731.711914062 1521 l 1
 732.850923895 1521.00367347 l 2
 740.766404171 1521.00367347 778.665510309 1520.12118425 777.139648438 1491 c 0
 776.144107138 1472.00002222 737.166129841 1370.21792893 406.434570312 409 c 0
 351.632943968 249.727912838 317.224857123 166.810054614 317.224857123 125.918774821 c 0
 317.224857123 98.5373573603 332.652904817 90 367.716796875 90 c 0
 461.716796875 90 583.000976562 229 613.150390625 270 c 0
 628.198242188 290 639.35546875 293 653.35546875 293 c 1
 682.09375 288 691.044921875 268 690.311523438 254 c 0
EndSplineSet
EndChar

StartChar: m
Encoding: 109 109 22
Width: 1883
VWidth: 18
Flags: HMW
LayerCount: 3
Fore
SplineSet
1740 780 m 0
 1740 615 1492 208 1492 106 c 0
 1492 91 1497 85 1518 85 c 0
 1566 85 1665 141 1749 271 c 0
 1763 293 1780 302 1794 302 c 0
 1814 302 1831 285 1831 267 c 0
 1831 240 1710 -10 1427 -10 c 0
 1354 -10 1279 14 1279 92 c 0
 1279 199 1547 682 1547 769 c 0
 1547 806 1533 820 1498 820 c 0
 1423 820 1182 725 1041 456 c 0
 860 112 880 0 786 0 c 2
 702 0 l 2
 661 0 654 25 654 42 c 0
 654 101 948 678 948 788 c 0
 948 816 937 831 894 831 c 0
 722 831 513 611 444 482 c 0
 346 299 251 42 235 22 c 0
 230 15 216 0 185 0 c 2
 107 0 l 1
 93 1 55 0 55 39 c 0
 55 76 67 90 360 818 c 1
 192 818 l 1
 164 822 152 840 152 859 c 0
 152 883 171 908 199 908 c 2
 525 908 l 2
 555 908 568 900 568 879 c 0
 568 847 539 787 493 679 c 1
 586 776 753 920 926 920 c 0
 1076 920 1124 855 1124 771 c 0
 1124 747 1120 721 1113 695 c 1
 1201 775 1387 918 1593 918 c 0
 1709 918 1740 853 1740 780 c 0
EndSplineSet
EndChar

StartChar: n
Encoding: 110 110 23
Width: 1295
VWidth: 18
Flags: HMW
LayerCount: 3
Fore
SplineSet
710.537259569 101.45392831 m 0
 710.537259569 201.112438217 938.329461259 681.712642133 938.329461259 772.054324625 c 0
 938.329461259 811.847431875 913.266076659 845 865.284179688 845 c 0
 771.284179688 845 631.25390625 749 537.908203125 647 c 0
 397.836914062 493 281.830078125 54 261.310546875 25 c 0
 244.052734375 1 219 0 209 0 c 2
 128 0 l 2
 127.304341471 0 126.312994429 -0.0151233085618 125.084090792 -0.0151233085618 c 0
 112.502712354 -0.0151233085618 75.0219909857 1.57001661734 75.0219909857 37.1972681439 c 0
 75.0219909857 79.0009031278 269.236473704 598.959128987 350.869140625 818 c 1
 191.869140625 818 l 1
 164.203256871 821.843813299 152.415894428 840.277679929 152.415894428 859.470529782 c 0
 152.415894428 883.157257509 170.369341343 908 198.5859375 908 c 2
 512.5859375 908 l 2
 544.519407208 908 557.951553532 900.276298468 557.951553532 879.233694748 c 0
 557.951553532 853.951094833 538.561012555 809.441432287 508.572265625 736 c 1
 591.764648438 816 746.896484375 933 943.896484375 933 c 0
 1108.79455426 933 1149.34384176 856.660102282 1149.34384176 776.32686885 c 0
 1149.34384176 654.380468381 927.879971396 188.517218167 923.974609375 114 c 0
 923.188476562 99 930.455078125 85 959.455078125 85 c 0
 1048.45507812 85 1154.00097656 229 1173.1015625 250 c 0
 1178.36425781 255 1185.78320312 263 1198.78320312 263 c 1
 1221.77540445 259.13414652 1232.03794532 244.059700492 1232.03794532 230.414761129 c 0
 1232.03794532 202.266016054 1085.24179957 -20 871.952148438 -20 c 0
 800.994289682 -20 710.537259569 4.56567022787 710.537259569 101.45392831 c 0
EndSplineSet
EndChar

StartChar: o
Encoding: 111 111 24
Width: 1106
VWidth: 18
Flags: HMW
LayerCount: 3
Fore
SplineSet
421.620117188 50 m 0
 706.535498784 50 877.843893812 471.027815393 877.843893812 731.515618878 c 0
 877.843893812 851.484270804 813.373255008 884 699.328125 884 c 0
 432.168963237 884 274.829827098 359.617256838 274.829827098 217.579686998 c 0
 274.829827098 140.48732358 304.090372412 50 421.620117188 50 c 0
56.3896892806 320.803574551 m 0
 56.3896892806 511.217099898 235.120198494 962 748.416015625 962 c 0
 957.098643826 962 1089.39279447 827.902378697 1089.39279447 629.96686597 c 0
 1089.39279447 283.589282176 761.862033075 -34 440.217773438 -34 c 0
 221.699701034 -34 56.3896892806 107.167521791 56.3896892806 320.803574551 c 0
EndSplineSet
EndChar

StartChar: p
Encoding: 112 112 25
Width: 794
VWidth: 18
Flags: HMW
LayerCount: 3
Fore
SplineSet
343.35009385 632.733995616 m 0
 343.35009385 725.564091095 419.707687229 794 505.611328125 794 c 0
 580.922225077 794 634.217970451 729.675640281 634.217970451 656.832955297 c 0
 634.217970451 572.459830947 565.320002815 499 481.151367188 499 c 0
 405.559139621 499 343.35009385 557.231323389 343.35009385 632.733995616 c 0
EndSplineSet
EndChar

StartChar: q
Encoding: 113 113 26
Width: 794
VWidth: 18
Flags: HMW
LayerCount: 3
Fore
SplineSet
343.35009385 632.733995616 m 0
 343.35009385 725.564091095 419.707687229 794 505.611328125 794 c 0
 580.922225077 794 634.217970451 729.675640281 634.217970451 656.832955297 c 0
 634.217970451 572.459830947 565.320002815 499 481.151367188 499 c 0
 405.559139621 499 343.35009385 557.231323389 343.35009385 632.733995616 c 0
EndSplineSet
EndChar

StartChar: r
Encoding: 114 114 27
Width: 1018
VWidth: 18
Flags: HMW
LayerCount: 3
Fore
SplineSet
186.5859375 908 m 2
 565.5859375 908 l 2
 601.495457907 907.028112888 616.42904847 902.676568064 616.42904847 885.604084199 c 0
 616.42904847 863.066916997 590.405322833 818.361857483 552.2578125 730 c 1
 651.240234375 806 818.743164062 911 924.743164062 911 c 0
 999.106665566 911 1031.1937068 855.778130762 1031.1937068 794.469798283 c 0
 1031.1937068 717.972788536 981.238635582 632 901.122070312 632 c 0
 853.120629972 632 811.563573904 667.022854743 811.563573904 731.759805803 c 0
 811.563573904 751.455883482 815.930149169 771.301946736 817.930664062 781 c 1
 732.833984375 741 525.122070312 632 412.068359375 402 c 0
 225.622968885 22.6896752241 277 0 170 0 c 2
 127 0 l 2
 73.3863147776 0 54.5933161257 8.13597810342 54.5933161257 32.3914812685 c 0
 54.5933161257 47.2587313573 61.6538379548 68.182080352 72.083984375 97 c 1
 366.869140625 818 l 1
 169.869140625 818 l 1
 138.483925566 820.866860357 128.00354566 839.258287514 128.00354566 857.466011429 c 0
 128.00354566 907.391826758 170.216499783 908 186.5859375 908 c 2
EndSplineSet
EndChar

StartChar: s
Encoding: 115 115 28
Width: 853
VWidth: 18
Flags: HMW
LayerCount: 3
Fore
SplineSet
32.7609017554 200.618989151 m 0
 32.7609017554 281.71379862 95.3631517845 326 150.084960938 326 c 0
 191.736917012 326 252.824355796 303.597081034 252.824355796 179.051155511 c 0
 252.824355796 163.073314144 251.738906262 153.125757398 251.738906262 140.714992023 c 0
 251.738906262 97.2558591056 265.002398077 60 353.14453125 60 c 0
 434.792658532 60 552.842127801 108.473568843 552.842127801 190.596342726 c 0
 552.842127801 338.594527467 244.160021213 425.609441891 244.160021213 627.491501102 c 0
 244.160021213 725.853206995 342.737720483 935 587.000976562 935 c 0
 721.639482164 935 838.15887873 861.705545385 838.15887873 751.3355311 c 0
 838.15887873 696.249691707 807.478235986 653 762.22265625 653 c 0
 621.22265625 653 700.126953125 842 552.126953125 842 c 0
 482.317537192 842 413.09202067 809.098988622 413.09202067 763.980686148 c 0
 413.09202067 671.222432935 740.426935936 511.825756604 740.426935936 299.755107564 c 0
 740.426935936 156.375683513 595.158739181 -38 336.008789062 -38 c 0
 143.243189802 -38 32.7609017554 85.2173910171 32.7609017554 200.618989151 c 0
EndSplineSet
EndChar

